HIERARCHY
ROOT Hips
{
	OFFSET 32.682701 11.489584 98.680901
	CHANNELS 6 Xposition Yposition Zposition Xrotation Yrotation Zrotation
	JOINT spine
	{
		OFFSET 0.000000 -0.477352 8.301041
		CHANNELS 3 Xrotation Yrotation Zrotation
		JOINT spine1
		{
			OFFSET 0.000000 -0.000002 10.456497
			CHANNELS 3 Xrotation Yrotation Zrotation
			JOINT spine2
			{
				OFFSET 0.000000 -0.000002 10.019203
				CHANNELS 3 Xrotation Yrotation Zrotation
				JOINT Neck
				{
					OFFSET 0.000000 -1.226414 25.723495
					CHANNELS 3 Xrotation Yrotation Zrotation
					JOINT Head
					{
						OFFSET 0.000000 -0.000001 7.771744
						CHANNELS 3 Xrotation Yrotation Zrotation
						End Site
						{
							OFFSET 0.000000 6.203936 18.811996
						}
					}
				}
				JOINT RightShoulder
				{
					OFFSET -4.218800 0.587437 10.820007
					CHANNELS 3 Xrotation Yrotation Zrotation
					JOINT RightArm
					{
						OFFSET 0.000000 -0.000002 14.191406
						CHANNELS 3 Xrotation Yrotation Zrotation
						JOINT RightArmRoll
						{
							OFFSET 0.000000 -0.000001 7.164078
							CHANNELS 3 Xrotation Yrotation Zrotation
							JOINT RightForeArm
							{
								OFFSET 0.000000 -0.000004 20.866501
								CHANNELS 3 Xrotation Yrotation Zrotation
								JOINT RightForeArmRoll
								{
									OFFSET 0.000000 -0.000001 8.039215
									CHANNELS 3 Xrotation Yrotation Zrotation
									JOINT RightHand
									{
										OFFSET 0.000000 -0.000003 16.132996
										CHANNELS 3 Xrotation Yrotation Zrotation
										End Site
										{
											OFFSET 0.000000 0.000000 0.100006
										}
									}
								}
							}
						}
					}
				}
				JOINT LeftShoulder
				{
					OFFSET 4.218800 0.587437 10.820007
					CHANNELS 3 Xrotation Yrotation Zrotation
					JOINT LeftArm
					{
						OFFSET 0.000000 -0.000002 14.191406
						CHANNELS 3 Xrotation Yrotation Zrotation
						JOINT LeftArmRoll
						{
							OFFSET 0.000000 -0.000001 7.164078
							CHANNELS 3 Xrotation Yrotation Zrotation
							JOINT LeftForeArm
							{
								OFFSET 0.000000 -0.000004 20.866501
								CHANNELS 3 Xrotation Yrotation Zrotation
								JOINT LeftForeArmRoll
								{
									OFFSET 0.000000 -0.000001 8.039215
									CHANNELS 3 Xrotation Yrotation Zrotation
									JOINT LeftHand
									{
										OFFSET 0.000000 -0.000003 16.132996
										CHANNELS 3 Xrotation Yrotation Zrotation
										End Site
										{
											OFFSET 0.000000 0.000000 0.100006
										}
									}
								}
							}
						}
					}
				}
			}
		}
	}
	JOINT RightUpLeg
	{
		OFFSET -7.357731 1.131810 -1.349213
		CHANNELS 3 Xrotation Yrotation Zrotation
		JOINT RightUpLegRoll
		{
			OFFSET 0.000000 -0.000003 18.916801
			CHANNELS 3 Xrotation Yrotation Zrotation
			JOINT RightLeg
			{
				OFFSET 0.000000 0.000004 -23.425598
				CHANNELS 3 Xrotation Yrotation Zrotation
				JOINT RightLegRoll
				{
					OFFSET 0.000000 -0.000004 23.502304
					CHANNELS 3 Xrotation Yrotation Zrotation
					JOINT RightFoot
					{
						OFFSET 0.000000 -0.000003 19.561707
						CHANNELS 3 Xrotation Yrotation Zrotation
						JOINT RightToeBase
						{
							OFFSET 0.000000 -0.000003 16.352600
							CHANNELS 3 Xrotation Yrotation Zrotation
							End Site
							{
								OFFSET 0.006931 0.912835 7.919434
							}
						}
					}
				}
			}
		}
	}
	JOINT LeftUpLeg
	{
		OFFSET 7.357731 1.131810 -1.349213
		CHANNELS 3 Xrotation Yrotation Zrotation
		JOINT LeftUpLegRoll
		{
			OFFSET 0.000000 -0.000003 18.916901
			CHANNELS 3 Xrotation Yrotation Zrotation
			JOINT LeftLeg
			{
				OFFSET 0.000000 -0.000004 23.425499
				CHANNELS 3 Xrotation Yrotation Zrotation
				JOINT LeftLegRoll
				{
					OFFSET 0.000000 -0.000004 23.719498
					CHANNELS 3 Xrotation Yrotation Zrotation
					JOINT LeftFoot
					{
						OFFSET 0.000000 -0.000003 19.344406
						CHANNELS 3 Xrotation Yrotation Zrotation
						JOINT LeftToeBase
						{
							OFFSET 0.000000 -0.000003 16.352600
							CHANNELS 3 Xrotation Yrotation Zrotation
							End Site
							{
								OFFSET -0.031063 0.912836 7.919434
							}
						}
					}
				}
			}
		}
	}
}
MOTION
Frames: 6
Frame Time: 0.041667
38.036797 1.032152 98.634300 -3.680576 -0.890588 1.217674 -0.874216 -0.164510 0.252600 2.255087 -0.329965 0.488832 3.900152 -0.324052 0.492785 20.346848 -0.955103 -1.128459 -6.486634 2.912328 -1.277637 -5.271998 -74.993360 -7.573756 -80.544985 -113.695349 -58.613303 -0.000000 0.000000 -0.000000 0.095776 -12.425786 0.026226 -0.000001 -0.000004 -3.023211 -5.000198 -7.998722 0.000169 11.703024 65.706099 -12.315889 -52.801010 108.490547 37.035973 -0.000002 -0.000019 -0.000001 6.319892 10.367894 0.016869 0.000001 -0.000007 3.003710 -5.000230 7.998773 -0.000154 2.507521 -179.183784 -0.359909 -179.999991 0.000005 -1.044003 174.781139 -3.835090 -0.618026 -0.000002 0.000007 0.058364 68.691151 6.852984 2.255525 25.456945 -7.362030 0.000009 -0.488456 178.722049 2.620204 -0.000005 -0.000004 -1.125730 -11.572199 3.295428 1.117501 -0.000005 0.000002 -0.160834 69.541469 -6.874445 -2.131677 25.456883 7.344525 0.000007 
38.036797 1.028662 98.631500 -3.677811 -0.891313 1.219460 -0.873974 -0.164488 0.252129 2.255487 -0.330744 0.489629 3.900563 -0.324830 0.493588 20.350607 -0.964494 -1.124386 -6.495329 2.921876 -1.274053 -5.269922 -74.992404 -7.571429 -80.529201 -113.695896 -58.605605 -0.000000 -0.000000 -0.000000 0.095776 -12.437083 0.020606 -0.000002 -0.000004 -3.023452 -5.000199 -7.998723 0.000169 11.695558 65.699583 -12.308752 -52.730976 108.487590 36.982117 -0.000001 -0.000020 0.000000 6.308767 10.382929 0.015901 0.000000 -0.000007 3.003711 -5.000232 7.998773 -0.000154 2.507130 -179.183797 -0.357331 -179.999991 0.000005 -1.044003 174.778216 -3.839044 -0.617587 -0.000002 0.000007 0.058364 68.689355 6.852973 2.255534 25.456945 -7.362031 0.000008 -0.493271 178.720041 2.616458 -0.000005 -0.000004 -1.125730 -11.581241 3.297772 1.117877 -0.000006 0.000002 -0.160808 69.542001 -6.874467 -2.131646 25.456883 7.344526 0.000006 
38.037598 1.016274 98.637093 -3.674947 -0.892027 1.221039 -0.873748 -0.164454 0.251645 2.255818 -0.331548 0.490471 3.900893 -0.325632 0.494433 20.355366 -0.973840 -1.120168 -6.505111 2.931388 -1.270315 -5.267418 -74.991659 -7.568662 -80.515090 -113.696524 -58.599827 -0.000001 0.000001 0.000001 0.095778 -12.448586 0.015061 -0.000003 -0.000004 -3.023672 -5.000199 -7.998721 0.000170 11.687976 65.692964 -12.301481 -52.660902 108.484660 36.928022 -0.000001 -0.000021 -0.000001 6.298315 10.397650 0.014929 0.000004 -0.000008 3.003710 -5.000225 7.998773 -0.000155 2.506812 -179.182787 -0.355181 -179.999991 0.000005 -1.044003 174.775675 -3.841029 -0.617939 -0.000002 0.000006 0.058364 68.687777 6.853011 2.255538 25.456945 -7.362030 0.000007 -0.498262 178.718047 2.612037 -0.000006 -0.000005 -1.125730 -11.590495 3.300749 1.118289 -0.000006 0.000002 -0.160768 69.542418 -6.874451 -2.131818 25.456883 7.344526 0.000007 
38.039696 1.010807 98.633797 -3.671984 -0.892735 1.222480 -0.873538 -0.164413 0.251152 2.256098 -0.332370 0.491343 3.901163 -0.326453 0.495309 20.360727 -0.983153 -1.115848 -6.515668 2.940865 -1.266457 -5.264630 -74.991324 -7.565616 -80.502461 -113.697351 -58.595851 0.000002 0.000001 0.000000 0.095779 -12.460184 0.009565 -0.000001 -0.000005 -3.023881 -5.000199 -7.998723 0.000170 11.680260 65.686264 -12.294060 -52.591019 108.481832 36.874019 0.000000 -0.000019 -0.000000 6.288344 10.412364 0.013957 0.000001 -0.000008 3.003710 -5.000229 7.998773 -0.000154 2.506543 -179.182773 -0.353407 -179.999991 0.000005 -1.044003 174.773462 -3.843995 -0.617361 -0.000002 0.000006 0.058364 68.686411 6.852991 2.255522 25.456947 -7.362030 0.000008 -0.503380 178.715055 2.607149 -0.000004 -0.000004 -1.125730 -11.599951 3.304174 1.118733 -0.000003 0.000002 -0.160719 69.542848 -6.874468 -2.131894 25.456883 7.344525 0.000006 
38.028996 1.008159 98.626503 -3.668987 -0.893437 1.223852 -0.873337 -0.164367 0.250654 2.256338 -0.333203 0.492232 3.901404 -0.327284 0.496202 20.366381 -0.992455 -1.111485 -6.526647 2.950329 -1.262525 -5.261720 -74.991092 -7.562450 -80.490556 -113.698225 -58.592744 -0.000003 0.000000 -0.000001 0.095775 -12.471887 0.004101 -0.000002 -0.000004 -3.024079 -5.000199 -7.998723 0.000170 11.672573 65.679666 -12.286672 -52.521289 108.479113 36.820160 -0.000000 -0.000019 -0.000000 6.278640 10.426875 0.012992 0.000001 -0.000008 3.003710 -5.000230 7.998774 -0.000154 2.506311 -179.182787 -0.351822 -179.999991 0.000005 -1.044003 174.771427 -3.845982 -0.617681 -0.000002 0.000006 0.058364 68.685140 6.852979 2.255498 25.456948 -7.362030 0.000008 -0.508569 178.712050 2.602001 -0.000005 -0.000004 -1.125730 -11.609309 3.307855 1.119182 -0.000005 0.000002 -0.160664 69.543374 -6.874456 -2.131859 25.456883 7.344525 0.000006 
38.029896 1.000704 98.625191 -3.665974 -0.894139 1.225194 -0.873137 -0.164320 0.250156 2.256568 -0.334038 0.493126 3.901634 -0.328117 0.497098 20.372252 -1.001746 -1.107090 -6.537748 2.959782 -1.258584 -5.258693 -74.990860 -7.559158 -80.478685 -113.699202 -58.589670 -0.000003 0.000001 -0.000001 0.095776 -12.483686 -0.001353 -0.000002 -0.000003 -3.024270 -5.000199 -7.998724 0.000169 11.664861 65.673061 -12.279259 -52.451359 108.476340 36.766116 0.000001 -0.000020 -0.000001 6.269011 10.441480 0.012016 0.000001 -0.000007 3.003711 -5.000231 7.998774 -0.000155 2.506082 -179.183797 -0.350328 -179.999991 0.000005 -1.044003 174.769460 -3.847956 -0.617995 -0.000002 0.000006 0.058364 68.683877 6.853003 2.255379 25.456945 -7.362031 0.000009 -0.513776 178.709058 2.596775 -0.000004 -0.000004 -1.125730 -11.618772 3.311603 1.119642 -0.000005 0.000002 -0.160609 69.543805 -6.874471 -2.131936 25.456883 7.344525 0.000006 
